
<svg width="60" height="60" fill="none" xmlns="http://www.w3.org/2000/svg"><path d="M43.345 53.637H13.257c-1.317 0-2.257-.94-2.257-2.257V20.916L24.916 7h18.24c1.317 0 2.257.94 2.257 2.257v42.311c0 1.128-.94 2.069-2.068 2.069z" stroke="#0075FF" stroke-width="3" stroke-miterlimit="10" stroke-linecap="round" stroke-linejoin="round"/><path d="M25.104 7L11.188 20.916h13.916V7z" stroke="#0075FF" stroke-width="3" stroke-miterlimit="10" stroke-linecap="round" stroke-linejoin="round"/><path d="M53.942 23.38l-7.313-7.314-17.02 17.02 7.313 7.314 17.02-17.02z" fill="#F5F5F5" stroke="#0075FF" stroke-width="3" stroke-miterlimit="10" stroke-linecap="round" stroke-linejoin="round"/><path d="M53.891 23.36l-7.334-7.334 1.505-1.504c2.068-2.069 5.265-2.069 7.334 0 2.068 2.069 2.068 5.265 0 7.334L53.89 23.36zM27 43.106l9.967-2.633-7.334-7.334L27 43.106z" fill="#F5F5F5" stroke="#0075FF" stroke-width="3" stroke-miterlimit="10" stroke-linecap="round" stroke-linejoin="round"/></svg>