
<svg width="60" height="60" fill="none" xmlns="http://www.w3.org/2000/svg"><path d="M44.29 54H13.323C11.968 54 11 53.032 11 51.677V20.323L25.323 6h18.774c1.355 0 2.322.968 2.322 2.323V51.87A2.148 2.148 0 0144.29 54z" stroke="#0075FF" stroke-width="3" stroke-miterlimit="10" stroke-linecap="round" stroke-linejoin="round"/><path d="M25.516 6L11.194 20.323h14.322V6z" stroke="#0075FF" stroke-width="3" stroke-miterlimit="10" stroke-linecap="round" stroke-linejoin="round"/><path d="M43.323 53.613c7.696 0 13.935-6.24 13.935-13.936S51.02 25.742 43.323 25.742s-13.936 6.239-13.936 13.935c0 7.697 6.24 13.936 13.936 13.936z" fill="#F5F5F5" stroke="#0075FF" stroke-width="3" stroke-miterlimit="10"/><path d="M43.322 31.355v8.322l5.613 5.42" stroke="#0075FF" stroke-width="3" stroke-miterlimit="10" stroke-linecap="round" stroke-linejoin="round"/></svg>