
<svg width="60" height="60" fill="none" xmlns="http://www.w3.org/2000/svg"><path d="M32.435 47.382c8.122 0 14.706-6.463 14.706-14.436S40.557 18.51 32.435 18.51c-8.121 0-14.705 6.463-14.705 14.436s6.584 14.436 14.705 14.436z" stroke="#0075FF" stroke-width="3" stroke-miterlimit="10" stroke-linecap="round" stroke-linejoin="round"/><path d="M32.435 53.625c11.634 0 21.065-9.258 21.065-20.68 0-11.42-9.431-20.678-21.065-20.678-11.633 0-21.064 9.258-21.064 20.679 0 11.42 9.43 20.679 21.064 20.679zm0-34.421v3.511M17.707 32.946h3.577m11.151 14.436v-3.511M47.14 32.946h-3.377M36.609 7h-8.546v5.267h8.546V7z" stroke="#0075FF" stroke-width="3" stroke-miterlimit="10" stroke-linecap="round" stroke-linejoin="round"/><path d="M25.679 26.118l6.756 6.633 3.776-3.512M14.55 21.826H5.5m9.05 22.044H6m4.82-11.12H2" stroke="#0075FF" stroke-width="3" stroke-miterlimit="10" stroke-linecap="round" stroke-linejoin="round"/></svg>